<?xml version="1.0" encoding="utf-8"?>
<!-- Generator: Adobe Illustrator 24.0.1, SVG Export Plug-In . SVG Version: 6.00 Build 0)  -->
<svg version="1.1" id="_x2014_ÎÓÈ_x5F_1" xmlns="http://www.w3.org/2000/svg" xmlns:xlink="http://www.w3.org/1999/xlink"
	 x="0px" y="0px" viewBox="0 0 210 110" style="enable-background:new 0 0 210 110;" xml:space="preserve">
<style type="text/css">
	.st0{fill:#1D1D1B;}
</style>
<g>
	<g>
		<path class="st0" d="M95.7,54.4c-0.6-3.7-1.1-7.5-1.8-11.2l0,0c-0.1-0.3-0.4-0.9-0.8-0.9c-0.5,0.1-0.6,1-0.7,1.4
			c-0.1,0.8-0.1,1.7,0,2.5c0.1,1.7,0.5,3.3,0.9,4.9c0.2,0.9,0.5,1.9,0.7,2.8c0.1,0.5,0.3,0.9,0.3,1.4c0.2,0.8,0.3,1.5,1.3,1.7
			C96.1,57,96.5,57,97,57c0.5,0,1,0,1.5,0c1.2,0,2.4-0.1,3.6-0.1c3.3-0.2,6.5-0.1,9.8-0.1c0.8,0,1.8,0,2.6,0.1
			c0.8,0,1.5-0.1,2.3-0.1c1-0.1,1.5-0.9,1.9-1.8c0.9-2.4,2.1-4.7,3.1-7l0,0c0.3-0.7-0.7-1.3-1.1-0.7c-0.1,0.1-0.1,0.1-0.1,0.1
			c-1,2.1-1.9,4.2-2.7,6.3c-0.5,1.1-1.3,1.8-2.5,1.7c-2.4-0.1-4.6-0.1-7,0c-3.6,0.1-7.2,0.1-10.8,0.3C96.4,55.8,95.9,55.4,95.7,54.4
			z"/>
		<path class="st0" d="M113.8,50.3c0.5-0.3,1.2-2.7,1.4-4.1c0.1-0.5-0.5-0.9-0.9-0.5c-1.3,1-1.8,3-1.7,4.5
			C112.6,50.4,113.5,50.5,113.8,50.3z"/>
		<path class="st0" d="M107.3,50.3c0.1,0.3,0.7,0.6,1.1,0.7c0.1,0.1,0.6-0.5,0.6-0.7c-0.1-1.1-0.1-2.3-0.3-3.5
			c0-0.2-0.2-0.3-0.3-0.5c-0.2-0.2-0.5-0.2-0.7,0.1c-0.1,0.1-0.2,0.2-0.2,0.2c-0.2,0.3-0.2,0.6-0.2,0.9c0,0.5,0.1,0.9,0.1,1.4
			C107.2,49.4,107.1,49.9,107.3,50.3z"/>
		<path class="st0" d="M130.2,27.6c-1.9-3.1-5.8-4.6-9.6-3.6c-4.5,1.2-7.4,5.2-11.3,7.5c-4.1,2.4-8.9,2.3-12.7-0.7
			c-3.5-2.7-5.5-7-6.4-11.4c-0.9-4.3-0.6-9.2,2.3-12.5c0.9-1,2.2-1.9,3.5-2.2c2.5-0.6,4.5-0.6,6.3,1.1c0.5,0.5,2.1,2.5,2.1,2.5
			s-1.9,1.1-2.4,1.5c-1.4,1-2.3,2.5-2.9,4.1c-0.6,1.6-0.3,3.8,1.1,4.9c1.7,1.4,4.5,0.5,5.9-1.3s1.7-3.7,1.5-6.1
			c-0.1-0.5-0.5-2-0.5-2s1.7-0.2,2-0.2c1.9-0.1,4.1,0.7,5.1,2.3c0.7,1.1,1.2,2.7,0.9,3.9c-0.5,1.7-1.2,2.8-2.5,4
			c-1.7,1.7-4.1,3.3-5.7,5c-0.1,0.1-0.2,0.2-0.3,0.3c-0.1,0.5,0.7,0.6,1.2,0.4c2-0.8,3.8-1.9,5.3-3.4c2.1-1.9,3.7-4.5,3.8-7.4
			s-2.4-6.1-5.2-6.7c-1.9-0.4-5.3-0.1-5.3-0.1s-2.3-2.9-4-4.1c-2.1-1.7-5.3-1.8-7.7-0.7c-2.5,1.1-4.4,3.3-5.5,5.8
			c-1.1,2.5-1.4,5.3-1.3,7.9c0.1,5.1,1.9,10.3,5.5,14c3.6,3.7,9.3,5.4,14.1,3.5c3-1.2,5.4-3.6,8-5.6c3.7-2.8,9.8-4.7,12.7,0.3
			c1.6,2.7,0.7,5.8-1.1,8.2c-1.6,2.1-3.7,3.6-6.2,4.5c-3.5,1.3-7.3,1.1-11,0.4c-4.5-0.8-8.9-2.2-13.1-3.9c-3.9-1.7-9.9-4.3-13.3-0.3
			c-1.5,1.7-2.7,6.3-0.9,8.2c0.3,0.3,0.9,0.4,1.1,0c0.1-0.1,0.1-0.3,0.1-0.5c0-1.1-0.1-2.3-0.1-3.5c0.1-1.1,0.4-2.4,1.2-3.2
			c1.4-1.4,3.7-1.3,5.5-0.9c8.1,1.6,15.6,5.9,23.8,5.9c3.7,0,7.4-0.9,10.5-2.9c3.1-1.9,6.1-5.3,6.3-9.1
			C131.3,30.2,130.9,28.8,130.2,27.6z M103.3,11.4c0.1-0.1,0.2-0.1,0.3-0.3c0.6-0.4,1.2-0.8,1.8-1.2c0,0,0.6,1.5,0.7,2.2
			c0.1,0.9,0,1.7-0.1,2.6c-0.1,0.8-0.3,1.5-0.9,2.1c-0.7,0.8-1.7,1.4-2.8,1.1c-0.8-0.2-1.5-0.9-1.6-1.7c-0.2-1.1,0.4-2.1,0.9-2.9
			C102.1,12.7,102.6,12,103.3,11.4z"/>
		<path class="st0" d="M101,49.6c-0.3-1.3-0.4-2.7-0.7-4c0-0.1-0.1-0.1-0.1-0.2c-0.4-0.6-1.3-0.6-1.7-0.1c-0.1,0.2-0.2,0.3-0.2,0.5
			c0.3,1.5,0.8,3.1,1.2,4.6c0.1,0.5,0.8,0.8,1.3,0.5C101.1,50.6,101.1,50.2,101,49.6z"/>
	</g>
	<g>
		<path class="st0" d="M204.5,84.4c-0.9-2.5-4.6-4.3-7.1-3.3c-2.9,1.1-4.2,4.1-5.1,6.9c-0.1,0.2-0.1,0.3,0,0.5
			c0.1,0.2,0.5,0.2,0.7,0.1c1.3-0.4,2.7-0.8,3.9-0.4c1.8,0.7,2.4,2.9,1.4,4.5c-0.5,0.7-1.3,1.3-2.1,1.5c-0.9,0.4-2,0.6-3.1,0.6
			c-2.3,0.1-4.7-0.6-6.5-2.1c-1-0.9-1.8-2-2.3-3.3c-0.5-1.3-0.3-2.7-0.3-4.1c0-0.4,0.2-2.4,0.2-2.4s1.3,0,1.7,0
			c1.7-0.1,2.6-0.2,4.3-0.5c3.7-0.6,4.7-3.7,4.4-6.1c-0.6-5.2-7.3-7.9-11.4-5.1c-2.9,1.9-4.3,5.1-5.3,8.3c-1.1,3.7-1,8.5,1.5,11.5
			c0.3,0.5,0.7,0.9,1.2,1.3c0.9,0.8,1.9,1.5,3,2.1c3,1.6,6.5,2.3,9.9,2.1c3.4-0.3,6.5-1.7,8.9-4.1C204.7,90.3,205.7,87.6,204.5,84.4
			z M185.1,78.6c0.7-1.8,1.9-4.2,4.1-4.5c0.7-0.1,1.3,0,1.9,0.3c0.5,0.2,0.9,0.5,1.2,0.9c1.3,1.5,1.3,4.5-0.9,5.3
			c-1.6,0.5-3.1,0.6-5.1,0.7c-0.9,0-1.8-0.1-1.8-0.1S184.7,79.4,185.1,78.6z"/>
		<path class="st0" d="M171.7,72.6c-2.4-0.7-5,0.1-7,1.5c-3.4,2.3-5.4,6.1-7.6,9.5c0.3-0.5,0-2.2,0-2.8c0-1,0-2.1-0.1-3.1
			c0-1.4,0-3.2,0-3.2s1.3-0.9,1.9-1.4c4.3-3.5,8-7.9,10.6-12.7c1-1.9,1.8-3.8,1.9-5.9c0.1-2.1-0.4-4.3-1.9-5.7
			c-1.6-1.7-4.1-2.2-6.4-1.7c-2.3,0.4-4.3,1.7-6,3.3c-3.9,3.5-6.3,8.5-7.4,13.7c-1.3,6.3-0.6,12.7,0.1,19c0.3,2.1,0.5,4.3,0.8,6.4
			c0.2,1.5,0.5,3,2.1,3.5c1.5,0.6,3,0,3.9-1.3c3.7,1.7,7,3.7,11.1,4.1c2,0.2,4.1,0.1,5.7-1c1.7-1.1,0.3-2.4-1.2-2.4
			c-0.8,0-1.5,0.2-2.3,0.2c-2.9,0.2-5.9-1.1-8.6-2.2c1.1,0.5,3.7-0.7,4.8-1.1c1.6-0.7,3.1-1.6,4.3-2.7c2.3-1.9,4.9-5.4,5.2-8.5
			C176.1,75.6,174.1,73.3,171.7,72.6z M157.1,69.8c0-0.9,0.1-1.7,0.1-2.6c0.1-1.7,0.5-3.4,0.7-5.1c0.6-3.2,1.8-6.3,3.6-9.1
			c0.8-1.2,1.9-2.3,3.3-2.8c1.3-0.5,3.1-0.3,4,0.8c0.5,0.6,0.8,1.3,0.9,2.1c0.3,3-1.7,6.9-3.5,9.1c-2.4,2.9-3.3,3.7-5.8,6.6
			c-0.6,0.7-2.8,2.5-3.5,3.3C157,71.6,157.1,70.2,157.1,69.8z M167.9,79.4c-2,3.3-4.8,6.6-8.2,8.5c-0.3,0.2-1.6,0.6-1.8,0.9
			c1.4-2.7,2.7-5.5,4.3-8.2c1.5-2.4,3.3-5.5,6.2-6.3c0.1,0,0.1,0,0.2,0l0,0c0.1,0,0.1,0.1,0.1,0.1C169.6,76.1,168.7,78.1,167.9,79.4
			z"/>
		<path class="st0" d="M75,87.9c-0.2,0.1-0.3,0.2-0.5,0.4c-0.7,0.9-2.3,3.7-3.7,3.3c-0.4-0.1-0.6-0.5-0.7-0.9
			c-0.5-1.5-0.4-3.2-0.3-4.8c0.3-5.1,1.3-10.3,0.9-15.4c-0.2-2.3-4.1-1.6-5.7-1.9c-0.9-0.1-1.5-0.1-1.7,0.9
			c-0.7,3.8-1.3,7.5-2.5,11.1c-1,3.2-2.1,6.5-3.7,9.5c-0.1,0.2-0.3,0.4-0.5,0.3c-0.1,0-0.1-0.1-0.2-0.1c-0.8-1-0.6-2.7-0.7-3.9
			c-0.1-4.1,0.2-8.2,0.7-12.2c0.1-1.4,0.1-2.9-0.7-3.9c-0.7-0.9-1.9-1.4-3.1-1.8c-0.4-0.1-3.9-0.7-3.9-0.7c1.1,3.9-0.1,7.4-0.5,11.1
			c-0.3,3-0.5,6,0.7,8.9c0.9,2.3,1.9,4.5,3.9,6c0.9,0.7,2,1.1,3.1,1c1.1-0.1,2.1-0.9,2.8-1.8c2.5-3.2,2.9-7.2,4-11
			c-0.3,3.8,1.1,8.7,3.7,11.4c0.6,0.6,1.3,1.1,2.2,1.3c3.2,0.7,7-2.5,7.2-5.7c0-0.3,0-0.5-0.1-0.8C75.5,88,75.3,87.8,75,87.9z"/>
		<path class="st0" d="M118.5,84.8c-0.1,0.1-0.1,0.1-0.1,0.2c-0.3,0.5-0.5,0.9-0.7,1.4c-0.4,1.1-0.8,2.1-1.5,3c-0.4,0.5-1,0.9-1.7,1
			c-0.6,0.1-1.1-0.2-1.5-0.6c-0.5-0.5-0.8-1.3-1-2c-0.7-2.5-0.7-5.3-0.7-7.9c0.1-2.3,0.2-4.7,1.1-6.9c0.3-0.8,0.7-1.7,1.3-2.3
			c0.9-1,1.9-0.3,2.7,0.5c0.5,0.6,1,1.4,1.1,2.3c0.1,0.6-0.5,2.2-0.1,2.7c0,0.1,0.1,0.1,0.1,0.1c0.5,0.3,1.3-0.9,1.4-1.3
			c0.5-1.3,0.3-2.7-0.3-3.9c-0.6-1.3-1.7-2.3-2.8-3.2c-2.7-1.9-6.2-2.1-8.7,0.3c-1.5,1.5-2.4,3.5-2.9,5.5l-2.9,1.3
			c-0.1-1.5-0.5-2.9-1-4.3c-0.4-1.1-1.1-2.2-2.1-2.9c-2.7-1.8-7-0.3-9.3,1.5c-1.9,1.5-3.1,3.7-4.6,5.6c-0.4-2.1-0.7-4.1-1.1-6.1
			c-0.6-2.5-2.9-3.9-5.4-3.5c-0.7,0.1-0.9,0.3-0.9,1c0.5,5.1,0.9,10.1,1.3,15.1c0.2,2.3,0.3,6.7,0.3,6.7s-0.3,1.5-0.5,2.3
			C77,93,76.5,95.8,76,98.6c-0.5,2.5-0.6,4.9,0.3,7.2c0.6,1.5,2.2,2.2,3.7,2.3c0.9,0.1,2,0,2.7-0.6c0.8-0.6,1.2-1.9,1.5-2.8
			c0.7-2.5,1-5.1,0.9-7.6c-0.1-2.9-0.3-5.9-0.4-8.7c-0.1-1.9-0.3-3.9-0.3-5.9c-0.1-1.3-0.4-2.9,0.1-4.1c0.5-1.5,2.1-3.8,3.2-4.9
			c1.3-1.3,2.1-1.9,3.6-2.8c0.7-0.4,1.9-0.4,2.7,0.1c0.6,0.4,0.6,1.3,0.7,1.9c0.2,1.5,0.2,2.3,0.4,3.8c0,0.1,0,1.3,0,1.3
			s-0.3,0.1-0.4,0.3c-0.8,0.6-1.5,1.2-2.4,1.7c-1.2,0.8-2.7,2-3.7,3.1c-1.3,1.5-1.7,3-1.7,5c0,1.3,0.3,2.6,1.2,3.5
			c0.5,0.5,1.3,0.9,2.1,1c2.9,0.6,5.9-0.9,7.8-3.1c1.9-2.3,2.7-5.3,3.1-8.2c0.2-1.4,0.3-2.9,0.2-4.3l2.3-1.1
			c-1,6.1,0.1,13.2,5.9,16.5c0.2,0.1,0.5,0.3,0.7,0.4c1.2,0.6,2.7,0.8,3.9,0.4c3.3-1.1,4.3-4.9,5.3-7.7l0,0
			C119.7,84.8,118.9,84.4,118.5,84.8z M80.5,105.5c-0.1,0.3-0.3,0.5-0.6,0.7c-0.3,0.1-0.7,0.1-0.9,0c0,0,0,0-0.1,0
			c-0.9-0.3-1.5-1.3-1.7-2.2c-0.3-1.1-0.1-2.2,0.1-3.3c0.5-3,0.9-5.8,1.5-8.7c0.1-0.4,0.3-1.1,0.3-1.1s1,7.4,1.1,8
			c0.1,1.3,0.4,2.5,0.5,3.8C80.7,103.5,80.8,104.6,80.5,105.5z M92.9,89c-0.7,1.3-1.9,0.9-2.8,0.5c-1.1-0.5-1.1-1.6-1-2.5
			c0.3-2.4,4-5.4,6.1-6.7C94.9,83.2,94.3,86.4,92.9,89z"/>
		<path class="st0" d="M150,87.8c-0.4-0.3-0.9,0.1-1.2,0.4c-1.1,1.2-1.3,2.9-2.3,4.1c-0.3,0.4-1,0.8-1.4,0.5
			c-0.2-0.2-0.3-0.5-0.3-0.7c-0.9-4.2,0.2-8.3,0.3-12.5c0.1-1.5,0-2.9-0.1-4.4c-0.1-0.9-0.1-1.9-0.3-2.9c-0.3-1.9-1.7-2.9-3.6-3.2
			c-1.9-0.3-2.9,0.5-3.3,2.4c-0.7-0.7-1.2-1.2-1.7-1.7c-3.5-3.3-8.9-3.5-11.8,0c-4.5,5.4-6.4,13.8-2.2,20.7c1.6,2.7,4.3,4,7.4,3.6
			c2.9-0.4,5-2.3,6.3-4.9c0.5-1,0.8-2.1,1.2-3.1c0.1,0,0.1,0,0.3,0.1c0.3,2,0.9,3.9,1.7,5.8c0.5,1,0.9,2,1.8,2.7
			c1,0.8,2.4,0.9,3.7,0.7c1.7-0.3,3.3-1.3,4.3-2.7c0.8-1.1,1.5-2.5,1.6-3.9C150.2,88.4,150.2,88,150,87.8z M136.6,79.4
			c-1.2,3.5-2.4,7.3-4.7,10.3c-0.4,0.5-0.9,1.1-1.5,1.3c-1.3,0.6-2.5-0.3-2.7-1.7c-0.7-3.2-0.7-6.6-0.3-9.9c0.4-2.9,0.9-5.7,2.5-8.2
			c0.5-0.8,1.1-1.6,2.1-1.7c0.9-0.1,1.7,0.3,2.4,0.9c0.1,0.1,0.1,0.1,0.1,0.1C137,72.9,137.7,76.4,136.6,79.4z"/>
		<path class="st0" d="M43,49.7c-4.1-2.8-9.8-3-13.4,0.6c-1.5,1.5-2.5,3.5-3,5.5c-0.1,0.6-1.5,6.6-1.3,6.7c-2.2-1.3-4.7-3-7.1-3.8
			c-2-0.7-4.3-0.9-6.3-0.3c-3.7,1-6.1,4.6-6.7,8.2c-0.7,4.7,0.7,11.1,5.6,12.9c2.7,1,6.2,0.3,8.1-1.9c-0.1,0.1-3.3-2.7-3.7-3
			c-1-1.1-1.5-2.7-1.5-4.2c0-2.3,1.4-4.3,3.3-5.6c2-1.4,4.5-0.5,6.7-0.2c0.3,0.1,1.1,0.3,1.1,0.3s-0.2,2.5-0.3,3.2
			c-0.9,5.9-0.3,10.7,0.4,16.6c0.7,5.3,3.3,11.9,9.1,13.4c1.4,0.3,2.9,0.3,4.3-0.1c1.8-0.5,3.4-1.7,4.5-3.2c0.7-1,1.3-2.2,1.3-3.4
			c0-0.6,0-1.1-0.6-1.2c-0.5-0.1-1.3,0.4-1.5,0.7c-0.5,0.5-0.5,1.4-0.7,2.1c-0.4,1.5-1.7,2.7-3.2,3.1c-1.5,0.3-3.2-0.3-4.1-1.5
			c-0.7-0.9-1-1.9-1.3-3c-1.2-5.2-0.7-10.5-0.2-15.7c0.1-1.4,0.3-2.7,0.4-4.1c0.1-0.8,0.4-3.7,0.4-3.7s1.3,0.5,1.9,0.7
			c2.3,0.9,4.5,1.8,7.3,1.4c1.8-0.3,3.2-0.9,4.1-2.2c2.6-3.5,2.8-8.4,1.3-12.4C47,53,45.1,51.2,43,49.7z M46.2,65.3
			c-1.3,2.1-3.4,2.8-5.8,2.8c-2.1,0-4.1-0.7-5.9-1.7c-0.4-0.2-1.1-0.7-1.1-0.7s1.1-7.9,3-11.5c0.4-0.7,0.8-1.4,1.3-1.9
			c2-1.8,4.5-1.5,6.1,0.7c1.5,2,3,4,3.3,6.5C47.4,61.4,47.2,63.6,46.2,65.3z"/>
	</g>
</g>
</svg>
